<?xml version="1.0" encoding="UTF-8" standalone="no"?>
<!-- Created with Inkscape (http://www.inkscape.org/) -->

<svg
   width="317.49997mm"
   height="166.6875mm"
   viewBox="0 0 317.49997 166.6875"
   version="1.1"
   id="svg1"
   xml:space="preserve"
   inkscape:version="1.4.3 (0d15f75042, 2025-12-25)"
   sodipodi:docname="drawing.svg"
   inkscape:export-filename="../Documents/UnfinishedProjects/og-image.svg"
   inkscape:export-xdpi="96"
   inkscape:export-ydpi="96"
   xmlns:inkscape="http://www.inkscape.org/namespaces/inkscape"
   xmlns:sodipodi="http://sodipodi.sourceforge.net/DTD/sodipodi-0.dtd"
   xmlns="http://www.w3.org/2000/svg"
   xmlns:svg="http://www.w3.org/2000/svg"><sodipodi:namedview
     id="namedview1"
     pagecolor="#ffffff"
     bordercolor="#000000"
     borderopacity="0.25"
     inkscape:showpageshadow="2"
     inkscape:pageopacity="0.0"
     inkscape:pagecheckerboard="0"
     inkscape:deskcolor="#d1d1d1"
     inkscape:document-units="mm"
     inkscape:zoom="0.55307694"
     inkscape:cx="-491.79414"
     inkscape:cy="1513.3518"
     inkscape:window-width="1920"
     inkscape:window-height="1043"
     inkscape:window-x="0"
     inkscape:window-y="0"
     inkscape:window-maximized="1"
     inkscape:current-layer="layer1"><inkscape:page
       x="0"
       y="0"
       width="317.49997"
       height="166.6875"
       id="page2"
       margin="0"
       bleed="0" /></sodipodi:namedview><defs
     id="defs1" /><g
     inkscape:label="Layer 1"
     inkscape:groupmode="layer"
     id="layer1"
     transform="translate(241.52389,-351.12302)"><rect
       style="fill:#0f172a;fill-opacity:1;stroke:none;stroke-width:2.11175;stroke-linecap:round;stroke-linejoin:round;stroke-opacity:0.0892789"
       id="rect4"
       width="317.5"
       height="166.6875"
       x="-241.52391"
       y="351.12302"
       inkscape:export-filename="og-image.png"
       inkscape:export-xdpi="96"
       inkscape:export-ydpi="96" /><text
       xml:space="preserve"
       style="font-style:normal;font-variant:normal;font-weight:normal;font-stretch:condensed;font-size:34.1331px;font-family:'Liberation Sans Narrow';-inkscape-font-specification:'Liberation Sans Narrow Condensed';text-align:center;writing-mode:lr-tb;direction:ltr;text-anchor:middle;fill:#60a5fa;fill-opacity:1;stroke:#000000;stroke-width:2.09622;stroke-linecap:round;stroke-linejoin:round;stroke-opacity:0.0892789"
       x="-83.340584"
       y="416.03586"
       id="text1"><tspan
         sodipodi:role="line"
         id="tspan1"
         style="font-style:normal;font-variant:normal;font-weight:normal;font-stretch:condensed;font-size:34.1331px;font-family:'Liberation Sans Narrow';-inkscape-font-specification:'Liberation Sans Narrow Condensed';fill:#60a5fa;fill-opacity:1;stroke:none;stroke-width:2.09622"
         x="-83.340591"
         y="416.03586"><tspan
   style="font-style:normal;font-variant:normal;font-weight:normal;font-stretch:condensed;font-size:34.1331px;font-family:'Liberation Sans Narrow';-inkscape-font-specification:'Liberation Sans Narrow Condensed';fill:#ffffff;fill-opacity:1;stroke-width:2.09622"
   id="tspan3">Unfinished</tspan>Projects</tspan></text><g
       id="g16"
       transform="translate(-0.83718211)"><text
         xml:space="preserve"
         style="font-style:normal;font-variant:normal;font-weight:normal;font-stretch:normal;font-size:8.70179px;font-family:wasy10;-inkscape-font-specification:wasy10;text-align:center;writing-mode:lr-tb;direction:ltr;text-anchor:middle;fill:#ffffff;fill-opacity:1;stroke:none;stroke-width:2.97638;stroke-linecap:round;stroke-linejoin:round;stroke-opacity:0.0892789"
         x="-147.74399"
         y="487.06201"
         id="text4"><tspan
           sodipodi:role="line"
           style="font-style:normal;font-variant:normal;font-weight:normal;font-stretch:normal;font-size:8.70179px;font-family:'Liberation Sans Narrow';-inkscape-font-specification:'Liberation Sans Narrow';fill:#ffffff;fill-opacity:1;stroke-width:2.97638"
           x="-147.74399"
           y="487.06201"
           id="tspan5">A community for creatives to collaborate.</tspan></text><text
         xml:space="preserve"
         style="font-style:normal;font-variant:normal;font-weight:normal;font-stretch:normal;font-size:8.70179px;font-family:wasy10;-inkscape-font-specification:wasy10;text-align:center;writing-mode:lr-tb;direction:ltr;text-anchor:middle;fill:#ffffff;fill-opacity:1;stroke:none;stroke-width:2.97638;stroke-linecap:round;stroke-linejoin:round;stroke-opacity:0.0892789"
         x="-9.3418131"
         y="487.40829"
         id="text9"><tspan
           sodipodi:role="line"
           style="font-style:normal;font-variant:normal;font-weight:normal;font-stretch:normal;font-size:8.70179px;font-family:'Liberation Sans Narrow';-inkscape-font-specification:'Liberation Sans Narrow';fill:#ffffff;fill-opacity:1;stroke-width:2.97638"
           x="-9.3418121"
           y="487.40829"
           id="tspan9">United, we can create a better world.</tspan></text><g
         id="g15"
         transform="translate(0.8494817)"><g
           id="skin"
           transform="matrix(0.20949278,0,0,0.20949278,-83.740757,477.45594)"><path
             fill="#fcea2b"
             stroke="none"
             d="m 21.2413,36.1672 c -2.0638,-0.1527 -3.6226,-1.9342 -3.5,-4 v -7 c -0.2578,-1.933 1.1001,-3.709 3.0331,-3.9669 1.933,-0.2578 3.709,1.1001 3.9669,3.0331 0.0413,0.3099 0.0413,0.6239 0,0.9337 v 7 c 0.1227,2.0659 -1.4362,3.8474 -3.5,4.0001 z"
             id="path1" /><path
             fill="#fcea2b"
             stroke="none"
             d="m 41.7566,38.9362 c -2.0638,-0.1527 -3.6226,-1.9342 -3.5,-4 v -15 c -0.2578,-1.933 1.1001,-3.709 3.0331,-3.9669 1.933,-0.2578 3.709,1.1001 3.9669,3.0331 0.0413,0.3099 0.0413,0.6239 0,0.9337 v 15 c 0.1226,2.0659 -1.4362,3.8474 -3.5,4.0001 z"
             id="path2" /><path
             fill="#fcea2b"
             stroke="none"
             d="m 35.2055,38.9362 c -2.0638,-0.1527 -3.6226,-1.9342 -3.5,-4 v -15 c -0.2578,-1.933 1.1001,-3.709 3.0331,-3.9669 1.933,-0.2578 3.709,1.1001 3.9669,3.0331 0.0413,0.3099 0.0413,0.6239 0,0.9337 v 15 c 0.1226,2.0659 -1.4362,3.8474 -3.5,4.0001 z"
             id="path3" /><path
             fill="#fcea2b"
             stroke="none"
             d="m 27.5528,40.1672 c -2.0638,-0.1527 -3.6226,-1.9342 -3.5,-4 v -15 c -0.2578,-1.933 1.1001,-3.709 3.0331,-3.9669 1.933,-0.2578 3.709,1.1001 3.9669,3.0331 0.0413,0.3099 0.0413,0.6239 0,0.9337 v 15 c 0.1226,2.0659 -1.4362,3.8474 -3.5,4.0001 z"
             id="path4" /><path
             fill="#fcea2b"
             stroke="none"
             d="m 20.0368,41.1694 c -2.0638,-0.1527 -3.6226,-1.9342 -3.5,-4 v -15 c -0.2578,-1.933 1.1001,-3.709 3.0331,-3.9669 1.933,-0.2578 3.709,1.1001 3.9669,3.0331 0.0413,0.3099 0.0413,0.6239 0,0.9337 v 15 c 0.1226,2.0659 -1.4362,3.8474 -3.5,4.0001 z"
             id="path5" /><path
             fill="#fcea2b"
             stroke="none"
             d="m 31.9818,16.3328 c -0.2578,-1.933 2.7585,-0.1838 6.218,0.4567 2.3329,0.4319 4.5808,-3.02 4.8386,-1.087 -0.2372,0.8694 3.7325,-2.5368 3.1508,7.8034"
             id="path6" /><line
             x1="44.211899"
             x2="44.177601"
             y1="20.052999"
             y2="20.694799"
             fill="#fcea2b"
             stroke="none"
             id="line6" /><path
             fill="#fcea2b"
             stroke="none"
             d="m 15.7504,36.1672 c 1.1419,8.8555 10.7801,19.5839 19.4548,19.4524 9.667,0 19.3573,-8.7184 19.3573,-19.0617 v 0 L 53.6343,26.0234 c 0,-5.1523 -14.0999,-4.1388 -16.301,-4.0927 L 16,29.4275"
             id="path7" /></g><g
           id="line"
           transform="matrix(0.20949278,0,0,0.20949278,-83.740757,477.45594)"><path
             fill="none"
             stroke="#000000"
             stroke-linecap="round"
             stroke-linejoin="round"
             stroke-width="2"
             d="m 43.7413,34.9892 v -2.333 c 0,-1.1 -1.789,-2.2 -3.976,-2.441 l -1.049,-0.117 c -2.187,-0.242 -3.976,-1.851 -3.976,-3.774 0,-1.923 1.8,-3.334 4,-3.334 h 10 c 2.2011,-0.0448 4.0567,1.6316 4.235,3.826 l 0.657,11.213"
             id="path8" /><path
             fill="none"
             stroke="#000000"
             stroke-linecap="round"
             stroke-linejoin="round"
             stroke-width="2"
             d="m 37.9633,38.0552 c 1.6302,-1.4796 3.6236,-2.5003 5.777,-2.958"
             id="path9" /><path
             fill="none"
             stroke="#000000"
             stroke-linecap="round"
             stroke-miterlimit="10"
             stroke-width="2"
             d="m 16.7761,39.479 c 1.1988,9.0291 8.9653,15.7322 18.0727,15.5981 10.1492,0 18.7855,-7.1738 18.7855,-17.7199"
             id="path10" /><line
             x1="16.7761"
             x2="16.7761"
             y1="39.479"
             y2="35.958302"
             fill="none"
             stroke="#000000"
             stroke-linecap="round"
             stroke-linejoin="round"
             stroke-width="2"
             id="line10" /><path
             fill="none"
             stroke="#000000"
             stroke-linecap="round"
             stroke-linejoin="round"
             stroke-width="2"
             d="m 20.3076,32.9647 c -2.0638,-0.1527 -3.6226,-1.9342 -3.5,-4 v -7 c -0.2578,-1.933 1.1001,-3.709 3.0331,-3.9669 1.933,-0.2578 3.709,1.1001 3.9669,3.0331 0.0413,0.3099 0.0413,0.6239 0,0.9337 v 7 c 0.1226,2.0659 -1.4362,3.8474 -3.5,4.0001 z"
             id="path11" /><path
             fill="none"
             stroke="#000000"
             stroke-linecap="round"
             stroke-linejoin="round"
             stroke-width="2"
             d="m 28.7444,31.8273 c -3.322,1.2271 -4.997,-1.9342 -4.8744,-4 v -7 c -0.2578,-1.933 1.1001,-3.709 3.0331,-3.9669 1.933,-0.2578 3.709,1.1001 3.9669,3.0331 0.0413,0.3099 0.0413,0.6239 0,0.9337"
             id="path12" /><path
             fill="none"
             stroke="#000000"
             stroke-linecap="round"
             stroke-linejoin="round"
             stroke-width="2"
             d="M 30.9324,24.4656 V 19.148 c -0.2578,-1.933 1.1001,-3.709 3.0331,-3.9669 1.933,-0.2578 3.709,1.1001 3.9669,3.0331 0.0413,0.3099 0.0413,0.6239 0,0.9337"
             id="path13" /><path
             fill="none"
             stroke="#000000"
             stroke-linecap="round"
             stroke-linejoin="round"
             stroke-width="2"
             d="m 37.9948,19.148 c -0.2578,-1.933 1.1001,-3.709 3.0331,-3.9669 1.933,-0.2578 3.709,1.1001 3.9669,3.0331 0.0413,0.3099 0.0413,0.6239 0,0.9337"
             id="path14" /></g></g></g></g></svg>
